<svg xmlns="http://www.w3.org/2000/svg" width="1600" height="900" viewBox="0 0 1600 900" role="img" aria-label="Petshop POS login screen preview">
  <defs>
    <linearGradient id="page" x1="0" x2="1" y1="0" y2="1">
      <stop offset="0" stop-color="#fff0d8"/>
      <stop offset="0.52" stop-color="#fff8ef"/>
      <stop offset="1" stop-color="#ffd49a"/>
    </linearGradient>
    <linearGradient id="photo" x1="0" x2="1" y1="0" y2="1">
      <stop offset="0" stop-color="#6f5a47"/>
      <stop offset="0.55" stop-color="#9a724d"/>
      <stop offset="1" stop-color="#d4a66e"/>
    </linearGradient>
    <linearGradient id="overlay" x1="0" x2="1">
      <stop offset="0" stop-color="#161616" stop-opacity="0.70"/>
      <stop offset="1" stop-color="#111827" stop-opacity="0.26"/>
    </linearGradient>
    <filter id="shadow" x="-15%" y="-15%" width="130%" height="130%">
      <feDropShadow dx="0" dy="18" stdDeviation="20" flood-color="#9b6b33" flood-opacity="0.18"/>
    </filter>
    <filter id="soft" x="-20%" y="-20%" width="140%" height="140%">
      <feGaussianBlur stdDeviation="24"/>
    </filter>
  </defs>

  <rect width="1600" height="900" fill="url(#page)"/>
  <path d="M0 270 C170 120 290 200 420 80 C560 -45 755 45 870 5 C1080 -70 1170 70 1380 36 C1485 18 1545 20 1600 32 L1600 0 L0 0 Z" fill="#fff7ea" opacity="0.55"/>
  <path d="M1140 0 C1040 95 995 130 885 148 C1130 160 1330 112 1600 140 L1600 0 Z" fill="#ffbb74" opacity="0.48"/>
  <path d="M20 730 C250 560 455 680 650 520 C900 315 1050 460 1300 292 C1420 212 1530 220 1600 250" fill="none" stroke="#fff" stroke-width="2" opacity="0.64"/>

  <rect x="82" y="96" width="1436" height="748" rx="31" fill="#ffffff" stroke="#fff7ea" stroke-width="8" filter="url(#shadow)"/>
  <clipPath id="card">
    <rect x="92" y="106" width="1416" height="728" rx="22"/>
  </clipPath>

  <g clip-path="url(#card)">
    <rect x="92" y="106" width="745" height="728" fill="url(#photo)"/>
    <circle cx="330" cy="395" r="146" fill="#c9935b" opacity="0.84" filter="url(#soft)"/>
    <circle cx="610" cy="330" r="170" fill="#d9b180" opacity="0.78" filter="url(#soft)"/>
    <path d="M236 390 C190 292 235 214 315 246 C385 278 393 374 358 460 C333 520 262 505 236 390 Z" fill="#b77745" opacity="0.88"/>
    <path d="M286 250 L205 190 L235 306 Z" fill="#9b552d"/>
    <path d="M350 253 L423 190 L390 308 Z" fill="#9b552d"/>
    <ellipse cx="284" cy="346" rx="22" ry="24" fill="#141414"/>
    <ellipse cx="357" cy="346" rx="22" ry="24" fill="#141414"/>
    <ellipse cx="322" cy="390" rx="28" ry="20" fill="#23170f"/>
    <path d="M470 360 C440 240 505 175 650 205 C785 235 812 390 752 550 C710 662 560 642 500 545 C472 498 462 430 470 360 Z" fill="#caa06f" opacity="0.86"/>
    <path d="M512 225 C550 155 682 160 724 234 C665 196 565 196 512 225 Z" fill="#ecd2ad" opacity="0.7"/>
    <circle cx="594" cy="348" r="17" fill="#21170f"/>
    <circle cx="676" cy="348" r="17" fill="#21170f"/>
    <ellipse cx="637" cy="400" rx="30" ry="22" fill="#21170f"/>
    <path d="M610 438 C632 456 656 456 678 438" fill="none" stroke="#523b2c" stroke-width="8" stroke-linecap="round"/>
    <rect x="92" y="106" width="745" height="728" fill="url(#overlay)"/>

    <g font-family="Inter, Arial, sans-serif">
      <rect x="150" y="342" width="210" height="52" rx="26" fill="#ffffff" opacity="0.23"/>
      <circle cx="179" cy="368" r="9" fill="none" stroke="#fff" stroke-width="3"/>
      <circle cx="179" cy="368" r="2.5" fill="#fff"/>
      <path d="M179 352 v-9 M179 393 v-9 M195 368 h9 M154 368 h9" stroke="#fff" stroke-width="3" stroke-linecap="round"/>
      <text x="202" y="374" fill="#fff" font-size="16" font-weight="900">POS PETSHOP</text>
      <text x="150" y="470" fill="#fff" font-size="64" font-weight="900">Operasional</text>
      <text x="150" y="535" fill="#fff" font-size="64" font-weight="900">petshop lebih</text>
      <text x="150" y="600" fill="#fff" font-size="64" font-weight="900">cepat, rapi, dan</text>
      <text x="150" y="665" fill="#fff" font-size="64" font-weight="900">terukur.</text>
      <text x="150" y="720" fill="#fff" font-size="22" opacity="0.92">Kasir, stok, member, grooming, hotel, dan laporan</text>
      <text x="150" y="750" fill="#fff" font-size="22" opacity="0.92">penjualan dalam satu web app modern.</text>
    </g>

    <rect x="837" y="106" width="671" height="728" fill="#fff"/>
    <rect x="925" y="264" width="496" height="396" rx="9" fill="#fff" stroke="#e6e8ec" filter="url(#shadow)"/>
    <g font-family="Inter, Arial, sans-serif">
      <text x="952" y="309" fill="#22a989" font-size="17" font-weight="900">Welcome back</text>
      <text x="952" y="345" fill="#111827" font-size="30" font-weight="900">Login POS</text>
      <text x="952" y="398" fill="#111827" font-size="15" font-weight="900">Email</text>
      <rect x="952" y="413" width="442" height="56" rx="9" fill="#fff" stroke="#e4e7ec"/>
      <text x="969" y="449" fill="#111827" font-size="16" font-weight="800">kasir@pospetshop.test</text>
      <text x="952" y="505" fill="#111827" font-size="15" font-weight="900">Password</text>
      <rect x="952" y="520" width="442" height="56" rx="9" fill="#fff" stroke="#e4e7ec"/>
      <text x="969" y="556" fill="#111827" font-size="22" font-weight="900">•••••••••••</text>
      <rect x="952" y="598" width="442" height="54" rx="8" fill="#071123"/>
      <text x="1146" y="632" text-anchor="middle" fill="#fff" font-size="17" font-weight="900">Masuk</text>
    </g>
  </g>
</svg>
